<svg width="64" height="606" viewBox="0 0 64 606" fill="none" xmlns="http://www.w3.org/2000/svg">
<path d="M38.3287 594.5L19.7605 551.5H63.2395L44.6713 594.5H38.3287Z" fill="#808080" fill-opacity="0.4"/>
<path d="M38.3287 594.5L19.7605 551.5H63.2395L44.6713 594.5H38.3287Z" fill="url(#paint0_linear_4_763)" fill-opacity="0.7"/>
<path d="M38.3287 594.5L19.7605 551.5H63.2395L44.6713 594.5H38.3287Z" stroke="#737373"/>
<path d="M12 60H19V86H12V60Z" fill="#808080" fill-opacity="0.5"/>
<path d="M12 60H19V86H12V60Z" fill="url(#paint1_linear_4_763)" fill-opacity="0.2"/>
<path d="M39 595H44V598.882L41.5 606L39 598.882V595Z" fill="#A3A3A3"/>
<mask id="path-4-inside-1_4_763" fill="white">
<path d="M19 23C19 20.7908 20.7909 19 23 19H60C62.2091 19 64 20.7909 64 23V551H19V23Z"/>
</mask>
<path d="M19 23C19 20.7908 20.7909 19 23 19H60C62.2091 19 64 20.7909 64 23V551H19V23Z" fill="#808080" fill-opacity="0.4"/>
<path d="M19 23C19 20.7908 20.7909 19 23 19H60C62.2091 19 64 20.7909 64 23V551H19V23Z" fill="url(#paint2_linear_4_763)" fill-opacity="0.7"/>
<path d="M18 23C18 20.2386 20.2386 18 23 18H60C62.7614 18 65 20.2386 65 23H63C63 21.3431 61.6569 20 60 20H23C21.3431 20 20 21.3431 20 23H18ZM64 551H19H64ZM18 551V23C18 20.2386 20.2386 18 23 18V20C21.3431 20 20 21.3431 20 23V551H18ZM60 18C62.7614 18 65 20.2386 65 23V551H63V23C63 21.3431 61.6569 20 60 20V18Z" fill="#737373" mask="url(#path-4-inside-1_4_763)"/>
<rect y="49" width="12" height="150" rx="4" fill="#808080" fill-opacity="0.5"/>
<rect y="49" width="12" height="150" rx="4" fill="url(#paint3_linear_4_763)" fill-opacity="0.5"/>
<path d="M26 4C26 1.79086 27.7909 0 30 0H53C55.2091 0 57 1.79086 57 4V19H26V4Z" fill="#808080" fill-opacity="0.5"/>
<path d="M26 4C26 1.79086 27.7909 0 30 0H53C55.2091 0 57 1.79086 57 4V19H26V4Z" fill="url(#paint4_linear_4_763)" fill-opacity="0.7"/>
<defs>
<linearGradient id="paint0_linear_4_763" x1="64" y1="573" x2="19" y2="573" gradientUnits="userSpaceOnUse">
<stop stop-color="white" stop-opacity="0"/>
<stop offset="0.5" stop-color="white"/>
<stop offset="1" stop-color="white" stop-opacity="0"/>
</linearGradient>
<linearGradient id="paint1_linear_4_763" x1="15.5" y1="60" x2="15.5" y2="86" gradientUnits="userSpaceOnUse">
<stop stop-color="white" stop-opacity="0"/>
<stop offset="1" stop-color="white"/>
</linearGradient>
<linearGradient id="paint2_linear_4_763" x1="64" y1="285" x2="19" y2="285" gradientUnits="userSpaceOnUse">
<stop stop-color="white" stop-opacity="0"/>
<stop offset="0.5" stop-color="white"/>
<stop offset="1" stop-color="white" stop-opacity="0"/>
</linearGradient>
<linearGradient id="paint3_linear_4_763" x1="6" y1="49" x2="6" y2="199" gradientUnits="userSpaceOnUse">
<stop stop-color="white" stop-opacity="0.5"/>
<stop offset="0.200721" stop-color="white"/>
<stop offset="1" stop-color="white" stop-opacity="0"/>
</linearGradient>
<linearGradient id="paint4_linear_4_763" x1="41.5" y1="0" x2="41.5" y2="19" gradientUnits="userSpaceOnUse">
<stop stop-color="white" stop-opacity="0"/>
<stop offset="1" stop-color="#EEEEEE"/>
</linearGradient>
</defs>
</svg>
